<svg width="31" height="46" viewBox="0 0 31 46" fill="none" xmlns="http://www.w3.org/2000/svg">
<g clip-path="url(#clip0_279_4)">
<path d="M31 7.1875V11.5C31 15.4711 24.0596 18.6875 15.5 18.6875C6.9404 18.6875 0 15.4711 0 11.5V7.1875C0 3.21641 6.9404 0 15.5 0C24.0596 0 31 3.21641 31 7.1875ZM27.208 19.2895C28.6473 18.6246 29.969 17.7711 31 16.7199V25.875C31 29.8461 24.0596 33.0625 15.5 33.0625C6.9404 33.0625 0 29.8461 0 25.875V16.7199C1.03103 17.7801 2.35268 18.6246 3.79196 19.2895C6.89888 20.727 11.0368 21.5625 15.5 21.5625C19.9632 21.5625 24.1011 20.727 27.208 19.2895ZM0 31.0949C1.03103 32.1551 2.35268 32.9996 3.79196 33.6645C6.89888 35.102 11.0368 35.9375 15.5 35.9375C19.9632 35.9375 24.1011 35.102 27.208 33.6645C28.6473 32.9996 29.969 32.1461 31 31.0949V38.8125C31 42.7836 24.0596 46 15.5 46C6.9404 46 0 42.7836 0 38.8125V31.0949Z" fill="#4BA2E7"/>
</g>
<defs>
<clipPath id="clip0_279_4">
<rect width="31" height="46" fill="white"/>
</clipPath>
</defs>
</svg>
