<svg width="23" height="20" viewBox="0 0 23 20" fill="none" xmlns="http://www.w3.org/2000/svg">
<path d="M2.5 19.3334C1.88125 19.3334 1.35156 19.1049 0.910937 18.6479C0.470312 18.191 0.25 17.6417 0.25 17V3.00002C0.25 2.35835 0.470312 1.80905 0.910937 1.3521C1.35156 0.895159 1.88125 0.666687 2.5 0.666687H20.5C21.1187 0.666687 21.6484 0.895159 22.0891 1.3521C22.5297 1.80905 22.75 2.35835 22.75 3.00002V17C22.75 17.6417 22.5297 18.191 22.0891 18.6479C21.6484 19.1049 21.1187 19.3334 20.5 19.3334H2.5ZM11.5 11.1667L2.5 5.33335V17H20.5V5.33335L11.5 11.1667ZM11.5 8.83335L20.5 3.00002H2.5L11.5 8.83335ZM2.5 5.33335V3.00002V17V5.33335Z" fill="white"/>
</svg>
