<svg width="31" height="28" viewBox="0 0 31 28" fill="none" xmlns="http://www.w3.org/2000/svg">
<path d="M30.4309 15.2359C31.1877 14.5523 31.1877 13.4422 30.4309 12.7586L22.6809 5.75859C21.924 5.075 20.6949 5.075 19.9381 5.75859C19.1812 6.44219 19.1812 7.55234 19.9381 8.23594L24.3822 12.25H11.625C10.5533 12.25 9.6875 13.032 9.6875 14C9.6875 14.968 10.5533 15.75 11.625 15.75H24.3822L19.9381 19.7641C19.1812 20.4477 19.1812 21.5578 19.9381 22.2414C20.6949 22.925 21.924 22.925 22.6809 22.2414L30.4309 15.2414V15.2359ZM9.6875 5.25C10.7592 5.25 11.625 4.46797 11.625 3.5C11.625 2.53203 10.7592 1.75 9.6875 1.75H5.8125C2.60352 1.75 0 4.10156 0 7V21C0 23.8984 2.60352 26.25 5.8125 26.25H9.6875C10.7592 26.25 11.625 25.468 11.625 24.5C11.625 23.532 10.7592 22.75 9.6875 22.75H5.8125C4.74082 22.75 3.875 21.968 3.875 21V7C3.875 6.03203 4.74082 5.25 5.8125 5.25H9.6875Z" fill="#E23939"/>
</svg>
