<svg width="23" height="24" viewBox="0 0 23 24" fill="none" xmlns="http://www.w3.org/2000/svg">
<path d="M4.75 14.3333H18.25V12H4.75V14.3333ZM4.75 10.8333H18.25V8.49998H4.75V10.8333ZM4.75 7.33331H18.25V4.99998H4.75V7.33331ZM22.75 23.6666L18.25 19H2.5C1.88125 19 1.35156 18.7715 0.910937 18.3146C0.470312 17.8576 0.25 17.3083 0.25 16.6666V2.66665C0.25 2.02498 0.470312 1.47567 0.910937 1.01873C1.35156 0.561785 1.88125 0.333313 2.5 0.333313H20.5C21.1187 0.333313 21.6484 0.561785 22.0891 1.01873C22.5297 1.47567 22.75 2.02498 22.75 2.66665V23.6666ZM2.5 16.6666H19.2062L20.5 17.9791V2.66665H2.5V16.6666Z" fill="white"/>
</svg>
